<svg id="Layer_1" data-name="Layer 1" xmlns="http://www.w3.org/2000/svg" viewBox="0 0 216.84 124.9"><defs><style>.cls-1,.cls-18,.cls-4,.cls-5{fill:#e65f22;}.cls-1,.cls-10,.cls-11,.cls-12,.cls-2,.cls-4,.cls-5,.cls-6,.cls-7,.cls-8,.cls-9{stroke:#e65f22;stroke-linejoin:round;}.cls-1,.cls-10,.cls-11,.cls-12,.cls-2,.cls-4,.cls-5,.cls-6,.cls-7,.cls-8{stroke-linecap:round;}.cls-1,.cls-11,.cls-14,.cls-15,.cls-2,.cls-4,.cls-5,.cls-6,.cls-7,.cls-8{stroke-width:2px;}.cls-10,.cls-11,.cls-15,.cls-2,.cls-8,.cls-9{fill:#fff;}.cls-3,.cls-4,.cls-8{opacity:0.2;}.cls-11,.cls-5{opacity:0.5;}.cls-6{fill:#ffb699;}.cls-7{fill:none;}.cls-10,.cls-12,.cls-9{stroke-width:3px;}.cls-13,.cls-14,.cls-16{fill:#22a9e6;}.cls-14,.cls-15{stroke:#22a9e6;stroke-miterlimit:10;}.cls-16{font-size:16px;font-family:Open Sans;font-weight:700;}.cls-17{fill:#72d0a8;}</style></defs><title>bryanIllustrations</title><circle class="cls-1" cx="60.83" cy="64.06" r="59.83"/><circle class="cls-2" cx="60.83" cy="61.06" r="59.83"/><g class="cls-3"><path class="cls-1" d="M625,260v45a12,12,0,0,0,3.51,8.49h0A22.14,22.14,0,0,0,644.17,320h21.66a22.14,22.14,0,0,0,15.66-6.48h0A12,12,0,0,0,685,305V260H625Z" transform="translate(-594.17 -219)"/><path class="cls-1" d="M661,282v15.65a2,2,0,0,1-1.41,1.91l-3.4,1.05a4,4,0,0,1-2.39,0L649,299.09" transform="translate(-594.17 -219)"/><polyline class="cls-4" points="54.83 64 54.83 77 33.83 77 33.83 64"/><polyline class="cls-4" points="87.83 64 87.83 77 66.83 77 66.83 64"/><polyline class="cls-1" points="54.83 62 54.83 75 33.83 75 33.83 62"/><line class="cls-1" x1="30.83" y1="63" x2="55.83" y2="63"/><polyline class="cls-1" points="37.83 57.5 42.8 56.5 51.83 57.5"/><line class="cls-1" x1="69.83" y1="58" x2="83.83" y2="58"/><polyline class="cls-1" points="87.83 62 87.83 75 66.83 75 66.83 62"/><line class="cls-1" x1="65.83" y1="63" x2="90.83" y2="63"/><path class="cls-1" d="M665,309H649.65a17.36,17.36,0,0,1-8.68-2.33h0" transform="translate(-594.17 -219)"/><path class="cls-1" d="M685,282.25l0.81-.22a4.16,4.16,0,0,1,5.25,3H691a4.91,4.91,0,0,1,0,1.37l-1.22,10c-0.28,2.23-1.78,3.67-4,4.67H685V282.25Z" transform="translate(-594.17 -219)"/><path class="cls-1" d="M625,282.25l-0.78-.22a4.13,4.13,0,0,0-5.22,3h0.06a4.91,4.91,0,0,0,0,1.37l1.22,10c0.28,2.23,1.78,3.67,4,4.67H625V282.25Z" transform="translate(-594.17 -219)"/><path class="cls-1" d="M625,282l2.86-11.46a6,6,0,0,1,5.82-4.54h42.65a6,6,0,0,1,5.82,4.53L685,281.79l1-18.61A10,10,0,0,0,678.53,253L652,246.13l-3,6.25-9-5.25-5,5.25-5.25-5.25L624.5,255a10,10,0,0,0-1.63,6.58Z" transform="translate(-594.17 -219)"/><line class="cls-5" x1="62.83" y1="95" x2="58.83" y2="95"/><line class="cls-5" x1="60.83" y1="86" x2="60.83" y2="85"/><line class="cls-1" x1="65.83" y1="65" x2="55.83" y2="65"/><g class="cls-3"><polygon class="cls-1" points="44.83 74 38.83 74 42.83 64 48.83 64 44.83 74"/><polygon class="cls-1" points="36.83 74 35.83 74 39.83 64 40.83 64 36.83 74"/><polygon class="cls-1" points="48.83 74 46.83 74 50.83 64 52.83 64 48.83 74"/><polygon class="cls-1" points="77.83 74 71.83 74 75.83 64 81.83 64 77.83 74"/><polygon class="cls-1" points="69.83 74 68.83 74 72.83 64 73.83 64 69.83 74"/><polygon class="cls-1" points="81.83 74 79.83 74 83.83 64 85.83 64 81.83 74"/></g></g><path class="cls-6" d="M625,257v45a12,12,0,0,0,3.51,8.49h0A22.14,22.14,0,0,0,644.17,317h21.66a22.14,22.14,0,0,0,15.66-6.48h0A12,12,0,0,0,685,302V257H625Z" transform="translate(-594.17 -219)"/><path class="cls-7" d="M661,279v15.65a2,2,0,0,1-1.41,1.91l-3.4,1.05a4,4,0,0,1-2.39,0L649,296.09" transform="translate(-594.17 -219)"/><polyline class="cls-8" points="54.83 61 54.83 74 33.83 74 33.83 61"/><polyline class="cls-8" points="87.83 61 87.83 74 66.83 74 66.83 61"/><polyline class="cls-2" points="54.83 59 54.83 72 33.83 72 33.83 59"/><line class="cls-9" x1="30.83" y1="59.5" x2="55.83" y2="59.5"/><polyline class="cls-10" points="37.83 54.5 42.8 53.5 51.83 54.5"/><line class="cls-10" x1="69.83" y1="54.5" x2="83.83" y2="54.5"/><polyline class="cls-2" points="87.83 59 87.83 72 66.83 72 66.83 59"/><line class="cls-9" x1="65.83" y1="59.5" x2="90.83" y2="59.5"/><path class="cls-7" d="M665,307H646.79a11.16,11.16,0,0,1-6.8-2.31l0,0" transform="translate(-594.17 -219)"/><path class="cls-6" d="M685,279.25l0.81-.22a4.16,4.16,0,0,1,5.25,3H691a4.91,4.91,0,0,1,0,1.37l-1.22,10c-0.28,2.23-1.78,3.67-4,4.67H685V279.25Z" transform="translate(-594.17 -219)"/><path class="cls-6" d="M625,279.25l-0.78-.22a4.13,4.13,0,0,0-5.22,3h0.06a4.91,4.91,0,0,0,0,1.37l1.22,10c0.28,2.23,1.78,3.67,4,4.67H625V279.25Z" transform="translate(-594.17 -219)"/><path class="cls-1" d="M625,279l2.86-11.46a6,6,0,0,1,5.82-4.54h42.65a6,6,0,0,1,5.82,4.53L685,278.79l1-18.61A10,10,0,0,0,678.53,250L652,243.13l-3,6.25-9-5.25-5,5.25-5.25-5.25L624.5,252a10,10,0,0,0-1.63,6.58Z" transform="translate(-594.17 -219)"/><line class="cls-11" x1="62.83" y1="92" x2="58.83" y2="92"/><line class="cls-11" x1="60.83" y1="83" x2="60.83" y2="82"/><line class="cls-12" x1="65.83" y1="61.5" x2="55.83" y2="61.5"/><g class="cls-3"><polygon class="cls-13" points="44.83 71 38.83 71 42.83 61 48.83 61 44.83 71"/><polygon class="cls-13" points="36.83 71 35.83 71 39.83 61 40.83 61 36.83 71"/><polygon class="cls-13" points="48.83 71 46.83 71 50.83 61 52.83 61 48.83 71"/><polygon class="cls-13" points="77.83 71 71.83 71 75.83 61 81.83 61 77.83 71"/><polygon class="cls-13" points="69.83 71 68.83 71 72.83 61 73.83 61 69.83 71"/><polygon class="cls-13" points="81.83 71 79.83 71 83.83 61 85.83 61 81.83 71"/></g><rect class="cls-14" x="98.84" y="3.6" width="117" height="43" rx="4" ry="4"/><path class="cls-15" d="M806,220H697a4,4,0,0,0-4,4v35.22a3.77,3.77,0,0,0,3.77,3.77H709v5.23a2,2,0,0,0,3.4,1.43l6.76-6.65H806a4,4,0,0,0,4-4V224A4,4,0,0,0,806,220Z" transform="translate(-594.17 -219)"/><text class="cls-16" transform="translate(110.06 29.08)">ASK<tspan class="cls-17" x="30.48" y="0"> </tspan><tspan class="cls-18" x="34.63" y="0">BRYAN!</tspan></text><path class="cls-1" d="M650,320l-2-6,3.3,0.94a13.46,13.46,0,0,0,7.4,0L662,314l-2,6h0a13.46,13.46,0,0,1-10,0h0Z" transform="translate(-594.17 -219)"/><polygon class="cls-1" points="63.83 81.79 63.83 84 70.45 84 63.83 81.79"/><polygon class="cls-1" points="57.83 81.79 57.83 84 50.83 84 57.83 81.79"/></svg>