<svg id="Layer_1" data-name="Layer 1" xmlns="http://www.w3.org/2000/svg" viewBox="0 0 74.06 82.88"><defs><style>.cls-1{fill:none;}.cls-1,.cls-11,.cls-2,.cls-3,.cls-4,.cls-5,.cls-6,.cls-7,.cls-8{stroke:#22a9e6;stroke-linejoin:round;}.cls-1,.cls-11,.cls-2,.cls-3,.cls-5,.cls-6,.cls-7,.cls-8{stroke-linecap:round;}.cls-1,.cls-11,.cls-2,.cls-3,.cls-6,.cls-7{stroke-width:2px;}.cls-2,.cls-3,.cls-4,.cls-5,.cls-7{fill:#fff;}.cls-2,.cls-9{opacity:0.2;}.cls-4,.cls-5,.cls-8{stroke-width:3px;}.cls-10,.cls-6{fill:#22a9e6;}.cls-7{opacity:0.5;}.cls-11{fill:#e65f22;}</style></defs><title>bryanIllustrations</title><path class="cls-1" d="M851,282v45a12,12,0,0,0,3.51,8.49h0A22.14,22.14,0,0,0,870.17,342h21.66a22.14,22.14,0,0,0,15.66-6.48h0A12,12,0,0,0,911,327V282H851Z" transform="translate(-844 -265.13)"/><path class="cls-1" d="M886,304v17.13h0a14.23,14.23,0,0,1-10,0h0" transform="translate(-844 -265.13)"/><polyline class="cls-2" points="32 39.88 32 52.88 11 52.88 11 39.88"/><polyline class="cls-2" points="63 39.88 63 52.88 42 52.88 42 39.88"/><polyline class="cls-3" points="32 37.88 32 50.88 11 50.88 11 37.88"/><line class="cls-4" x1="7" y1="38.37" x2="32" y2="38.37"/><line class="cls-5" x1="14" y1="33.37" x2="28" y2="33.37"/><line class="cls-5" x1="46" y1="33.37" x2="60" y2="33.37"/><polyline class="cls-3" points="63 37.88 63 50.88 42 50.88 42 37.88"/><line class="cls-4" x1="42" y1="38.37" x2="67" y2="38.37"/><path class="cls-1" d="M891,332H874.65a17.36,17.36,0,0,1-8.68-2.33h0" transform="translate(-844 -265.13)"/><path class="cls-1" d="M911,304.25l0.81-.22a4.16,4.16,0,0,1,5.25,3H917a4.91,4.91,0,0,1,0,1.37l-1.22,10c-0.28,2.23-1.78,3.67-4,4.67H911V304.25Z" transform="translate(-844 -265.13)"/><path class="cls-1" d="M851,304.25l-0.78-.22a4.13,4.13,0,0,0-5.22,3h0.06a4.91,4.91,0,0,0,0,1.37l1.22,10c0.28,2.23,1.78,3.67,4,4.67H851V304.25Z" transform="translate(-844 -265.13)"/><path class="cls-6" d="M851,304l2.86-11.46a6,6,0,0,1,5.82-4.54h42.65a6,6,0,0,1,5.82,4.53L911,303.79l1-18.61A10,10,0,0,0,904.53,275L878,268.13l-3,5.25-9-7.25-5,8.25-5.25-4.25-5,6.76a10,10,0,0,0-1.89,7Z" transform="translate(-844 -265.13)"/><line class="cls-7" x1="39" y1="70.87" x2="35" y2="70.87"/><line class="cls-8" x1="41" y1="40.37" x2="33" y2="40.37"/><g class="cls-9"><polygon class="cls-10" points="21 49.88 15 49.88 19 39.88 25 39.88 21 49.88"/><polygon class="cls-10" points="13 49.88 12 49.88 16 39.88 17 39.88 13 49.88"/><polygon class="cls-10" points="25 49.88 23 49.88 27 39.88 29 39.88 25 49.88"/><polygon class="cls-10" points="54 49.88 48 49.88 52 39.88 58 39.88 54 49.88"/><polygon class="cls-10" points="46 49.88 45 49.88 49 39.88 50 39.88 46 49.88"/><polygon class="cls-10" points="58 49.88 56 49.88 60 39.88 62 39.88 58 49.88"/></g><path class="cls-6" d="M874.3,339.89L874,339l3.3,0.94a13.46,13.46,0,0,0,7.4,0L888,339l-0.3.89A11.61,11.61,0,0,1,881,347h0A11.61,11.61,0,0,1,874.3,339.89Z" transform="translate(-844 -265.13)"/><polygon class="cls-11" points="40 60.67 40 62.88 46.62 62.88 40 60.67"/><path class="cls-11" d="M878,325.79V328h-3.76a9.48,9.48,0,0,1-4.24-1h0Z" transform="translate(-844 -265.13)"/></svg>