<svg id="Layer_1" data-name="Layer 1" xmlns="http://www.w3.org/2000/svg" viewBox="0 0 120 55.5"><defs><style>.cls-1,.cls-3{fill:#22a9e6;}.cls-1,.cls-2{stroke:#22a9e6;stroke-miterlimit:10;stroke-width:2px;}.cls-2{fill:#fff;}.cls-4{fill:#e65f22;}</style></defs><title>justTextLogo</title><rect class="cls-1" x="1" y="1" width="118" height="47" rx="5" ry="5"/><path class="cls-1" d="M805,221.27H696a4,4,0,0,0-4,4V260.5a3.77,3.77,0,0,0,3.77,3.77H708v5.23a2,2,0,0,0,3.4,1.43l6.76-6.65H805a4,4,0,0,0,4-4v-35A4,4,0,0,0,805,221.27Z" transform="translate(-691 -217)"/><path class="cls-2" d="M806,218H697a4,4,0,0,0-4,4v35.22a3.77,3.77,0,0,0,3.77,3.77H709v5.23a2,2,0,0,0,3.4,1.43l6.76-6.65H806a4,4,0,0,0,4-4V222A4,4,0,0,0,806,218Z" transform="translate(-691 -217)"/><path class="cls-3" d="M712.66,246.08l-0.83-2.72h-4.16l-0.83,2.72h-2.61l4-11.47h3l4,11.47h-2.61Zm-1.41-4.75q-1.15-3.7-1.29-4.18c-0.1-.32-0.17-0.58-0.21-0.77q-0.26,1-1.48,4.95h3Z" transform="translate(-691 -217)"/><path class="cls-3" d="M723.45,242.91a3,3,0,0,1-1.11,2.44,4.84,4.84,0,0,1-3.1.89,7.28,7.28,0,0,1-3.23-.69V243.3a13.3,13.3,0,0,0,2,.73,5.8,5.8,0,0,0,1.46.21,2.08,2.08,0,0,0,1.22-.3,1,1,0,0,0,.43-0.91,1,1,0,0,0-.19-0.6,2.09,2.09,0,0,0-.55-0.5,14.26,14.26,0,0,0-1.48-.77,7,7,0,0,1-1.57-.95,3.54,3.54,0,0,1-.84-1.05,3,3,0,0,1-.31-1.41,3,3,0,0,1,1-2.38,4.27,4.27,0,0,1,2.84-.87,6.71,6.71,0,0,1,1.7.21,11.73,11.73,0,0,1,1.69.59l-0.78,1.88a11.38,11.38,0,0,0-1.51-.52,4.88,4.88,0,0,0-1.18-.15,1.56,1.56,0,0,0-1.05.32,1.06,1.06,0,0,0-.37.84,1,1,0,0,0,.15.56,1.63,1.63,0,0,0,.47.46,14.61,14.61,0,0,0,1.54.8,6.12,6.12,0,0,1,2.2,1.54A3,3,0,0,1,723.45,242.91Z" transform="translate(-691 -217)"/><path class="cls-3" d="M734.71,246.08H732l-3-4.81-1,.73v4.08h-2.42V234.66h2.42v5.23l1-1.34,3.09-3.88h2.69l-4,5.05Z" transform="translate(-691 -217)"/><path class="cls-4" d="M740.3,234.66h3.55a6.85,6.85,0,0,1,3.53.69,2.41,2.41,0,0,1,1.1,2.2,2.77,2.77,0,0,1-.48,1.68,1.92,1.92,0,0,1-1.28.79v0.08a2.52,2.52,0,0,1,1.57.91,3,3,0,0,1,.48,1.77,2.91,2.91,0,0,1-1.13,2.44,4.88,4.88,0,0,1-3.07.88H740.3V234.66Zm2.42,4.52h1.41a2.57,2.57,0,0,0,1.43-.3,1.14,1.14,0,0,0,.44-1,1,1,0,0,0-.48-0.94,3.09,3.09,0,0,0-1.52-.29h-1.27v2.54Zm0,1.92v3h1.58a2.34,2.34,0,0,0,1.48-.38,1.41,1.41,0,0,0,.48-1.17q0-1.42-2-1.42h-1.5Z" transform="translate(-691 -217)"/><path class="cls-4" d="M753.47,241.7v4.38H751V234.66h3.33a5.7,5.7,0,0,1,3.45.85,3.38,3.38,0,0,1,.56,4.37,3.67,3.67,0,0,1-1.57,1.23q2.58,3.85,3.36,5h-2.69l-2.73-4.38h-1.29Zm0-2h0.78a3,3,0,0,0,1.7-.38,1.37,1.37,0,0,0,.55-1.2,1.25,1.25,0,0,0-.56-1.16,3.39,3.39,0,0,0-1.73-.34h-0.73v3.09Z" transform="translate(-691 -217)"/><path class="cls-4" d="M765.17,239.36l2.38-4.7h2.61l-3.79,7v4.45H764v-4.37l-3.79-7.05h2.63Z" transform="translate(-691 -217)"/><path class="cls-4" d="M778.59,246.08l-0.83-2.72H773.6l-0.83,2.72h-2.61l4-11.47h3l4,11.47h-2.61Zm-1.41-4.75q-1.15-3.7-1.29-4.18c-0.1-.32-0.17-0.58-0.21-0.77q-0.26,1-1.48,4.95h3Z" transform="translate(-691 -217)"/><path class="cls-4" d="M792.77,246.08h-3.08l-5-8.64h-0.07q0.15,2.29.15,3.27v5.38h-2.16V234.66h3.05l5,8.55h0.05q-0.12-2.23-.12-3.15v-5.41h2.18v11.42Z" transform="translate(-691 -217)"/><path class="cls-4" d="M795.12,245a1.31,1.31,0,0,1,.35-1,1.43,1.43,0,0,1,1-.34,1.38,1.38,0,0,1,1,.34,1.52,1.52,0,0,1,0,2,1.36,1.36,0,0,1-1,.36,1.4,1.4,0,0,1-1-.35A1.3,1.3,0,0,1,795.12,245Zm2.34-2.67h-1.91l-0.4-7.63h2.7Z" transform="translate(-691 -217)"/></svg>